<?xml version="1.0" standalone="no"?>
<!DOCTYPE svg PUBLIC "-//W3C//DTD SVG 20010904//EN"
 "http://www.w3.org/TR/2001/REC-SVG-20010904/DTD/svg10.dtd">
<svg version="1.0" xmlns="http://www.w3.org/2000/svg"
 width="96.000000pt" height="96.000000pt" viewBox="0 0 96.000000 96.000000"
 preserveAspectRatio="xMidYMid meet">
<metadata>
Created by potrace 1.11, written by Peter Selinger 2001-2013
</metadata>
<g transform="translate(0.000000,96.000000) scale(0.100000,-0.100000)"
fill="#000000" stroke="none">
<path d="M487 913 c-4 -3 -7 -17 -7 -31 0 -15 -13 -35 -36 -55 -59 -52 -85
-127 -49 -141 24 -9 45 4 45 28 0 13 19 42 44 68 64 64 74 137 20 138 -6 0
-14 -3 -17 -7z"/>
<path d="M613 873 c-7 -2 -13 -13 -13 -22 0 -10 -18 -37 -40 -60 -46 -49 -55
-95 -19 -106 21 -7 39 7 39 32 0 6 16 27 36 45 58 56 56 135 -3 111z"/>
<path d="M244 615 c-22 -22 -24 -30 -19 -87 5 -61 8 -103 20 -258 8 -106 13
-122 39 -153 38 -44 84 -57 198 -57 133 0 177 19 210 91 21 44 26 49 56 49 50
0 104 33 130 78 17 32 22 55 22 116 0 68 -3 80 -25 101 -20 21 -34 25 -83 25
l-59 0 0 42 c0 31 -6 46 -23 60 -20 16 -44 18 -232 18 l-209 0 -25 -25z m430
-57 c-1 -10 -5 -62 -8 -115 -22 -331 -18 -323 -186 -323 -169 0 -165 -6 -186
305 -3 55 -8 109 -10 119 -2 10 -1 23 2 28 3 4 92 7 197 6 176 -3 192 -4 191
-20z m166 -169 c0 -65 -2 -73 -29 -100 -22 -21 -39 -29 -65 -29 l-36 0 6 48
c3 26 7 67 9 92 1 25 3 48 4 53 0 4 26 7 56 7 l55 0 0 -71z"/>
</g>
</svg>
